<svg width="358" height="264" viewBox="0 0 358 264" fill="none" xmlns="http://www.w3.org/2000/svg">
<path d="M1.76514 251.081C1.76514 251.081 66.842 277.57 110.586 247.262C171.721 204.905 159.817 130.485 142.218 117.451C124.62 104.415 103.322 126.742 126.145 148.029C148.409 168.798 188.351 168.289 207.812 135.701C227.275 103.112 211.299 63.2884 257.089 47.6784" stroke="#323842" stroke-width="1.1025" stroke-miterlimit="10" stroke-linecap="round" stroke-dasharray="5.88 7.35"/>
<path d="M254.265 24.3133L243.015 55.2083L266.63 36.7657L356.921 4.02002L254.265 24.3133Z" fill="#00BDD6"/>
<path opacity="0.1" d="M254.265 24.3133L243.015 55.2083L266.63 36.7657L356.921 4.02002L254.265 24.3133Z" fill="#171A1F"/>
<path d="M269.561 44.0333L242.915 55.2773L266.53 36.8346L269.561 44.0333Z" fill="#323842"/>
<path d="M266.656 36.8058L356.947 4.06012L282.888 76.3311L266.656 36.8058Z" fill="#00BDD6"/>
<path d="M254.237 24.2628L216.713 0.0372009L356.893 3.96945L254.237 24.2628Z" fill="#00BDD6"/>
</svg>
